<svg xmlns="http://www.w3.org/2000/svg" viewBox="0 0 2468 1728" preserveAspectRatio="xMidYMid meet">

<g transform="translate(0.000000,1728.000000) scale(0.100000,-0.100000)"
fill="#000000" stroke="none">
<path d="M11908 16333 c7 -3 16 -2 19 1 4 3 -2 6 -13 5 -11 0 -14 -3 -6 -6z"/>
<path d="M11708 16323 c6 -2 18 -2 25 0 6 3 1 5 -13 5 -14 0 -19 -2 -12 -5z"/>
<path d="M11538 16313 c6 -2 18 -2 25 0 6 3 1 5 -13 5 -14 0 -19 -2 -12 -5z"/>
<path d="M13558 16253 c7 -3 16 -2 19 1 4 3 -2 6 -13 5 -11 0 -14 -3 -6 -6z"/>
<path d="M16877 15239 c7 -7 15 -10 18 -7 3 3 -2 9 -12 12 -14 6 -15 5 -6 -5z"/>
<path d="M11002 14290 c0 -14 2 -19 5 -12 2 6 2 18 0 25 -3 6 -5 1 -5 -13z"/>
<path d="M10967 14096 c-5 -15 -6 -31 -3 -34 8 -8 18 25 14 45 -3 13 -6 10
-11 -11z"/>
<path d="M13990 14055 c0 -8 2 -15 4 -15 2 0 6 7 10 15 3 8 1 15 -4 15 -6 0
-10 -7 -10 -15z"/>
<path d="M10958 14027 c-3 -19 -2 -25 4 -19 6 6 8 18 6 28 -3 14 -5 12 -10 -9z"/>
<path d="M19930 12906 c0 -2 8 -10 18 -17 15 -13 16 -12 3 4 -13 16 -21 21
-21 13z"/>
<path d="M4501 12799 c-13 -18 -18 -28 -11 -24 8 5 11 3 8 -6 -3 -8 -10 -14
-16 -14 -6 0 -17 -7 -24 -15 -11 -12 -11 -12 5 -1 9 7 17 10 17 6 0 -4 6 -2
13 4 8 6 17 8 20 4 4 -3 7 -1 7 6 0 8 7 11 15 7 8 -3 19 3 25 14 14 26 13 28
-17 22 -21 -4 -25 -2 -20 12 9 24 4 20 -22 -15z m23 -20 c-3 -5 -10 -7 -15 -3
-5 3 -7 10 -3 15 3 5 10 7 15 3 5 -3 7 -10 3 -15z"/>
<path d="M4090 12126 c0 -2 8 -10 18 -17 15 -13 16 -12 3 4 -13 16 -21 21 -21
13z"/>
<path d="M10691 11674 c0 -11 3 -14 6 -6 3 7 2 16 -1 19 -3 4 -6 -2 -5 -13z"/>
<path d="M10682 11545 c0 -16 2 -22 5 -12 2 9 2 23 0 30 -3 6 -5 -1 -5 -18z"/>
<path d="M14291 11324 c0 -11 3 -14 6 -6 3 7 2 16 -1 19 -3 4 -6 -2 -5 -13z"/>
<path d="M20386 10175 c-11 -8 -17 -15 -13 -15 3 0 -12 -18 -35 -39 -26 -25
-46 -37 -57 -34 -13 5 -14 4 -3 -8 10 -11 16 -11 32 -2 14 10 20 10 24 0 3 -8
5 -7 5 3 -2 33 1 45 9 33 5 -8 17 3 35 32 14 25 25 45 24 45 -1 0 -11 -7 -21
-15z"/>
<path d="M14321 10134 c0 -11 3 -14 6 -6 3 7 2 16 -1 19 -3 4 -6 -2 -5 -13z"/>
<path d="M10642 10105 c0 -16 2 -22 5 -12 2 9 2 23 0 30 -3 6 -5 -1 -5 -18z"/>
<path d="M4199 10081 c-15 -5 -14 -10 7 -41 l24 -35 -4 39 c-6 45 -6 45 -27
37z"/>
<path d="M14311 9924 c0 -11 3 -14 6 -6 3 7 2 16 -1 19 -3 4 -6 -2 -5 -13z"/>
<path d="M19974 9658 l-19 -23 23 19 c21 18 27 26 19 26 -2 0 -12 -10 -23 -22z"/>
<path d="M19888 9623 c-8 -10 -7 -12 6 -7 13 5 15 2 10 -12 -6 -16 -2 -15 19
5 15 14 27 26 27 28 0 9 -53 -3 -62 -14z"/>
<path d="M4655 9565 c59 -52 112 -84 112 -69 0 8 -3 12 -5 9 -3 -3 -23 14 -44
38 -21 23 -35 33 -31 23 6 -19 4 -18 -28 3 l-34 23 30 -27z"/>
<path d="M19492 9250 c0 -19 2 -27 5 -17 2 9 2 25 0 35 -3 9 -5 1 -5 -18z"/>
<path d="M10625 9250 c3 -5 8 -10 11 -10 2 0 4 5 4 10 0 6 -5 10 -11 10 -5 0
-7 -4 -4 -10z"/>
<path d="M19492 9180 c0 -14 2 -19 5 -12 2 6 2 18 0 25 -3 6 -5 1 -5 -13z"/>
<path d="M14231 9144 c0 -11 3 -14 6 -6 3 7 2 16 -1 19 -3 4 -6 -2 -5 -13z"/>
<path d="M19491 9124 c0 -11 3 -14 6 -6 3 7 2 16 -1 19 -3 4 -6 -2 -5 -13z"/>
<path d="M19492 9060 c0 -14 2 -19 5 -12 2 6 2 18 0 25 -3 6 -5 1 -5 -13z"/>
<path d="M10801 8764 c0 -11 3 -14 6 -6 3 7 2 16 -1 19 -3 4 -6 -2 -5 -13z"/>
<path d="M10765 8747 c-11 -7 -21 -21 -23 -31 -3 -16 -2 -17 10 -5 20 21 41
49 37 49 -2 -1 -13 -6 -24 -13z"/>
<path d="M10811 8724 c0 -11 3 -14 6 -6 3 7 2 16 -1 19 -3 4 -6 -2 -5 -13z"/>
<path d="M10983 8180 c1 -14 6 -28 11 -31 5 -4 -1 -10 -13 -14 -23 -7 -27 -20
-11 -30 6 -4 9 -1 8 6 -2 6 3 14 10 16 8 3 11 -3 9 -19 -3 -14 -11 -23 -22
-23 -10 0 -19 -8 -21 -18 -1 -10 2 -14 9 -10 6 4 8 0 4 -10 -6 -17 21 -53 32
-42 3 4 -2 11 -12 16 -9 6 -15 15 -11 21 4 7 9 6 14 -1 5 -9 11 -7 21 5 9 11
9 15 2 10 -9 -5 -11 -2 -7 8 3 8 12 12 20 9 19 -7 18 -5 -16 68 -17 38 -29 54
-27 39z"/>
<path d="M11060 8011 c0 -6 4 -13 10 -16 6 -3 7 1 4 9 -7 18 -14 21 -14 7z"/>
<path d="M11221 7626 c-6 -8 -9 -21 -5 -30 4 -10 1 -16 -7 -16 -10 0 -10 -3
-2 -11 14 -14 34 -3 27 14 -3 8 3 13 15 13 11 0 17 -4 15 -8 -3 -4 -1 -8 5 -8
5 0 13 5 17 12 5 7 11 5 21 -7 7 -11 13 -15 13 -9 0 11 -39 62 -40 52 0 -4
-11 -3 -24 2 -17 6 -28 5 -35 -4z"/>
<path d="M11246 7562 c-2 -4 -1 -14 5 -22 7 -12 9 -10 9 8 0 23 -5 28 -14 14z"/>
<path d="M11280 7544 c0 -8 8 -18 17 -21 15 -6 15 -7 -3 -14 -17 -7 -17 -8 4
-8 16 -1 21 -5 16 -13 -4 -7 -4 -10 1 -6 4 4 20 -1 34 -11 31 -21 67 -25 50
-5 -6 7 -16 11 -22 9 -7 -3 -18 -1 -26 4 -12 8 -12 12 -2 25 10 12 10 19 -1
33 -16 23 -68 28 -68 7z m62 -36 c-15 -15 -24 -6 -16 16 5 12 10 14 17 7 8 -8
8 -14 -1 -23z"/>
<path d="M13632 7511 c-10 -6 -9 -10 7 -14 14 -3 21 0 21 9 0 16 -9 18 -28 5z"/>
<path d="M13572 7472 c-19 -26 -19 -28 -3 -28 13 0 17 6 13 20 -3 11 -1 17 5
13 5 -3 10 0 10 8 0 20 -3 19 -25 -13z"/>
<path d="M13526 7411 c-10 -11 -15 -25 -10 -32 4 -7 3 -10 -4 -5 -6 3 -16 -2
-21 -13 -10 -18 -9 -18 20 -8 25 10 29 16 24 35 -3 13 -2 21 3 18 5 -3 9 1 9
9 0 19 0 19 -21 -4z"/>
<path d="M11645 7130 c3 -5 -3 -18 -14 -29 -25 -25 -18 -59 7 -39 12 10 14 10
8 1 -7 -13 3 -17 37 -13 10 1 28 -7 40 -17 11 -10 -1 10 -27 45 -26 34 -49 62
-52 62 -3 0 -3 -4 1 -10z m35 -64 c0 -3 -4 -8 -10 -11 -5 -3 -10 -1 -10 4 0 6
5 11 10 11 6 0 10 -2 10 -4z"/>
<path d="M11750 6996 c0 -2 8 -10 18 -17 15 -13 16 -12 3 4 -13 16 -21 21 -21
13z"/>
<path d="M13165 6940 c-25 -33 -43 -65 -40 -70 4 -6 1 -9 -6 -8 -6 2 -14 -3
-17 -11 -3 -10 0 -12 12 -8 11 4 15 3 11 -4 -4 -6 -13 -8 -21 -5 -7 3 -20 -5
-29 -17 -12 -17 -12 -23 -3 -26 7 -2 18 -10 26 -17 7 -7 19 -11 28 -7 18 7 12
29 -6 25 -11 -3 -11 0 -1 12 7 9 18 13 24 9 6 -4 8 0 4 10 -3 9 0 18 9 21 10
4 13 2 8 -7 -5 -8 -2 -7 9 2 19 15 23 51 6 51 -5 0 -8 -4 -5 -9 4 -5 -3 -7
-14 -4 -29 8 -24 23 7 23 21 0 24 3 15 12 -16 16 -15 33 1 19 8 -6 16 -8 19
-5 3 3 9 0 14 -7 5 -8 3 -10 -6 -4 -9 5 -11 4 -6 -3 4 -7 11 -12 17 -12 14 0
11 27 -7 44 -12 12 -12 16 -2 16 10 0 9 3 -2 10 -14 9 -7 14 13 11 5 -1 6 3 2
9 -9 15 -10 14 -60 -50z"/>
<path d="M11780 6956 c0 -2 8 -10 18 -17 15 -13 16 -12 3 4 -13 16 -21 21 -21
13z"/>
<path d="M13201 6874 c0 -11 3 -14 6 -6 3 7 2 16 -1 19 -3 4 -6 -2 -5 -13z"/>
<path d="M12041 6545 c0 -5 6 -21 14 -35 8 -14 14 -20 14 -15 0 6 -6 21 -14
35 -8 14 -14 21 -14 15z"/>
<path d="M12086 6423 c4 -16 8 -30 10 -32 2 -2 0 -9 -5 -15 -4 -6 -11 -21 -13
-33 -7 -25 20 -42 34 -21 6 10 8 10 8 -1 0 -8 2 -12 5 -9 6 6 -33 138 -41 138
-2 0 -1 -12 2 -27z m22 -78 c-3 -3 -9 2 -12 12 -6 14 -5 15 5 6 7 -7 10 -15 7
-18z"/>
<path d="M12126 6287 c3 -10 9 -15 12 -12 3 3 0 11 -7 18 -10 9 -11 8 -5 -6z"/>
<path d="M12791 6064 c0 -11 3 -14 6 -6 3 7 2 16 -1 19 -3 4 -6 -2 -5 -13z"/>
<path d="M19491 5204 c0 -11 3 -14 6 -6 3 7 2 16 -1 19 -3 4 -6 -2 -5 -13z"/>
<path d="M12876 1825 c-3 -8 -1 -15 4 -15 6 0 10 7 10 15 0 8 -2 15 -4 15 -2
0 -6 -7 -10 -15z"/>
<path d="M12891 1801 c-7 -5 -12 -11 -12 -15 1 -3 1 -14 1 -23 0 -15 -2 -16
-10 -3 -5 8 -10 11 -10 6 0 -12 38 -73 74 -118 25 -32 32 -36 45 -25 14 10 14
10 4 -4 -11 -13 -7 -20 20 -45 39 -37 79 -66 60 -44 -17 18 -16 40 0 40 8 0
14 7 14 15 0 10 -8 13 -26 10 -18 -4 -21 -3 -8 3 16 7 16 8 -2 24 -11 9 -21
15 -23 13 -2 -2 -4 6 -5 18 0 12 1 16 4 10 7 -18 20 -16 20 2 0 10 -8 15 -21
14 -42 -3 -52 1 -33 12 9 6 15 15 11 20 -4 6 -11 5 -20 -2 -9 -7 -14 -8 -13
-3 4 18 -13 43 -27 37 -10 -3 -12 0 -8 10 7 18 -12 32 -22 16 -5 -8 -3 -9 6
-4 9 6 11 4 5 -4 -5 -9 -10 -10 -18 -2 -7 7 -6 15 3 26 15 18 10 27 -9 16z
m16 -67 c-3 -3 -12 -4 -19 -1 -8 3 -5 6 6 6 11 1 17 -2 13 -5z m38 -13 c-3 -2
-16 -6 -28 -8 -15 -2 -18 0 -9 5 14 9 45 12 37 3z m-4 -38 c13 -16 12 -17 -3
-4 -10 7 -18 15 -18 17 0 8 8 3 21 -13z"/>
<path d="M12035 1675 c-16 -13 -32 -20 -35 -16 -3 5 -16 4 -29 -1 -23 -8 -23
-9 -5 -23 17 -12 17 -16 5 -37 -13 -22 -13 -22 14 2 26 24 90 100 83 100 -1
-1 -16 -12 -33 -25z"/>
<path d="M13066 1653 c-3 -4 -6 -15 -6 -25 0 -24 32 -20 36 4 2 17 -19 32 -30
21z m11 -25 c-3 -8 -6 -5 -6 6 -1 11 2 17 5 13 3 -3 4 -12 1 -19z"/>
<path d="M13536 1321 c-3 -5 3 -11 13 -14 14 -3 18 -1 14 9 -6 16 -19 18 -27
5z"/>
<path d="M5240 1300 c4 -8 18 -24 31 -35 l22 -20 -12 23 c-7 13 -8 22 -2 22 6
0 8 7 5 15 -3 8 -16 14 -29 13 -18 -2 -21 -6 -15 -18z"/>
<path d="M13760 1260 c0 -9 69 -24 76 -17 3 2 -13 9 -36 15 -22 5 -40 6 -40 2z"/>
<path d="M11140 1248 c0 -10 16 -9 50 2 22 7 20 8 -12 7 -21 -1 -38 -5 -38 -9z"/>
<path d="M13850 1240 c0 -5 5 -10 11 -10 5 0 7 5 4 10 -3 6 -8 10 -11 10 -2 0
-4 -4 -4 -10z"/>
<path d="M10948 1203 c7 -3 16 -2 19 1 4 3 -2 6 -13 5 -11 0 -14 -3 -6 -6z"/>
<path d="M10305 1029 c-4 -6 -5 -12 -2 -15 2 -3 7 2 10 11 7 17 1 20 -8 4z"/>
<path d="M10410 1018 c0 -9 -7 -18 -14 -21 -10 -4 -13 -1 -10 7 3 7 -2 13 -11
13 -9 0 -14 -6 -11 -14 3 -7 -1 -13 -10 -13 -9 0 -12 5 -8 12 4 7 3 8 -5 4 -6
-4 -9 -12 -6 -17 4 -5 1 -9 -4 -9 -6 0 -11 6 -11 13 0 8 -4 7 -10 -3 -14 -22
-13 -26 13 -37 18 -8 8 -10 -47 -12 -111 -2 -90 -11 27 -11 95 0 107 2 107 18
0 9 -4 13 -8 7 -12 -17 -41 -17 -64 0 -13 8 -18 16 -13 16 6 1 22 3 38 5 15 1
25 -1 22 -6 -3 -6 1 -7 10 -4 16 7 32 51 21 61 -3 4 -6 -1 -6 -9z"/>
<path d="M5817 992 c-18 -4 -18 -4 0 -19 10 -8 13 -12 6 -9 -6 4 -14 2 -18 -4
-3 -5 1 -10 9 -10 17 0 41 36 29 43 -5 2 -16 2 -26 -1z"/>
<path d="M14550 945 c0 -8 4 -15 10 -15 5 0 7 7 4 15 -4 8 -8 15 -10 15 -2 0
-4 -7 -4 -15z"/>
<path d="M9998 933 c7 -3 16 -2 19 1 4 3 -2 6 -13 5 -11 0 -14 -3 -6 -6z"/>
<path d="M10093 933 c9 -2 23 -2 30 0 6 3 -1 5 -18 5 -16 0 -22 -2 -12 -5z"/>
<path d="M10168 933 c7 -3 16 -2 19 1 4 3 -2 6 -13 5 -11 0 -14 -3 -6 -6z"/>
<path d="M17688 933 c7 -3 16 -2 19 1 4 3 -2 6 -13 5 -11 0 -14 -3 -6 -6z"/>
</g>
</svg>
