<svg xmlns="http://www.w3.org/2000/svg" viewBox="0 0 100 100" width="100%" height="100%">
  <defs>
    <mask id="cutouts">
      <rect width="100" height="100" fill="white" />
      
      <g fill="black" stroke="black">
        
        <polygon points="50,34 60,45 53,45 65,56 55,56 70,67 30,67 45,56 35,56 47,45 40,45" stroke-width="0"/>
        <rect x="46" y="67" width="8" height="6" stroke-width="0"/>
        
        <polygon points="50,22 52,25 56,25 53,28 54,32 50,30 46,32 47,28 44,25 48,25" stroke-width="0"/>
        
        <path d="M 28 20 Q 50 35 72 20" fill="none" stroke-width="2.5" stroke-linecap="round"/>
        <path d="M 28 25 Q 50 10 72 25" fill="none" stroke-width="2.5" stroke-linecap="round"/>
        
        <line x1="12" y1="67" x2="88" y2="67" stroke-width="3" stroke-linecap="round"/>
        
        <line x1="24" y1="70" x2="26" y2="90" stroke-width="2" stroke-linecap="round"/>
        <line x1="33" y1="70" x2="34" y2="90" stroke-width="2" stroke-linecap="round"/>
        <line x1="42" y1="70" x2="42" y2="90" stroke-width="2" stroke-linecap="round"/>
        <line x1="50" y1="70" x2="50" y2="90" stroke-width="2" stroke-linecap="round"/>
        <line x1="58" y1="70" x2="58" y2="90" stroke-width="2" stroke-linecap="round"/>
        <line x1="67" y1="70" x2="66" y2="90" stroke-width="2" stroke-linecap="round"/>
        <line x1="76" y1="70" x2="74" y2="90" stroke-width="2" stroke-linecap="round"/>
        
        <circle cx="25" cy="40" r="2" stroke-width="0"/>
        <circle cx="32" cy="55" r="1.5" stroke-width="0"/>
        <circle cx="18" cy="50" r="2" stroke-width="0"/>
        <circle cx="78" cy="42" r="1.5" stroke-width="0"/>
        <circle cx="68" cy="52" r="2" stroke-width="0"/>
        <circle cx="82" cy="54" r="1.5" stroke-width="0"/>
        <circle cx="72" cy="35" r="1.5" stroke-width="0"/>
      </g>
    </mask>
  </defs>

  <g mask="url(#cutouts)" fill="#801c2c">
    <path d="M 12 68 C 12 8, 88 8, 88 68 Z"/>
    <path d="M 16 66 L 20 92 C 20 96, 80 96, 80 92 L 84 66 Z"/>
  </g>
</svg>
